<?xml version="1.0" encoding="UTF-8" standalone="no"?>
<svg width="62px" height="66px" viewBox="0 0 62 66" version="1.1" xmlns="http://www.w3.org/2000/svg" xmlns:xlink="http://www.w3.org/1999/xlink">
    <!-- Generator: sketchtool 41.2 (35397) - http://www.bohemiancoding.com/sketch -->
    <title>729B441F-7266-437A-A6CE-6B5A1EF45A8C</title>
    <desc>Created with sketchtool.</desc>
    <defs></defs>
    <g id="Page-1" stroke="none" stroke-width="1" fill="none" fill-rule="evenodd">
        <g id="Select-Cinema-Landing-Page" transform="translate(-522.000000, -2543.000000)">
            <g id="Section-4" transform="translate(26.000000, 2262.000000)">
                <g id="Steps" transform="translate(0.000000, 97.000000)">
                    <g id="Step-2" transform="translate(119.000000, 0.000000)">
                        <g id="Form-Icon" transform="translate(377.000000, 184.000000)">
                            <path d="M0,0.000279824561 L0,65.7590518 L37.3757166,65.7590518 L35.977971,64.3571307 L1.39774557,64.3571307 L1.39774557,1.39660439 L33.5486892,1.39660439 L33.5486892,15.3906307 L47.5233494,15.3906307 L47.5233494,37.7765956 L48.9238905,37.7765956 L48.9238905,13.582964 L35.3545765,0.000279824561 L0,0.000279824561 Z M34.9436393,1.53092018 L47.3919614,13.9887096 L34.9436393,13.9887096 L34.9436393,1.53092018 Z" id="Fill-1" fill="#D3D1D1"></path>
                            <polygon id="Fill-2" fill="#D3D1D1" points="8.38647343 51.7675439 23.7616747 51.7675439 23.7616747 50.3712193 8.38647343 50.3712193"></polygon>
                            <polygon id="Fill-3" fill="#D3D1D1" points="8.38647343 43.372807 34.9436393 43.372807 34.9436393 41.9764825 8.38647343 41.9764825"></polygon>
                            <polygon id="Fill-4" fill="#D3D1D1" points="8.38647343 26.5833333 40.5374171 26.5833333 40.5374171 25.1870088 8.38647343 25.1870088"></polygon>
                            <polygon id="Fill-5" fill="#D3D1D1" points="8.38647343 34.9780702 29.3554525 34.9780702 29.3554525 33.5789474 8.38647343 33.5789474"></polygon>
                            <path d="M40.3025958,61.7936579 L61.7356264,61.7936579 L61.7356264,40.342307 L40.3025958,40.342307 L40.3025958,61.7936579 Z M41.7003414,60.3945351 L60.3378808,60.3945351 L60.3378808,41.7414298 L41.7003414,41.7414298 L41.7003414,60.3945351 Z" id="Fill-6" fill="#C6A059"></path>
                            <polygon id="Fill-7" fill="#FFFFFF" points="49.9017533 55.3669272 45.0990995 50.5651377 45.5351961 50.1286114 49.9017533 54.4938746 57.6173089 46.7679184 58.056201 47.207243"></polygon>
                            <polygon id="Fill-8" fill="#C6A059" points="49.9025919 55.8610974 44.6051362 50.5640184 45.5360348 49.6322026 49.9025919 54.000264 57.6181475 46.2743079 58.5490461 47.2061237 58.3030428 47.4551675"></polygon>
                        </g>
                    </g>
                </g>
            </g>
        </g>
    </g>
</svg>