<?xml version="1.0" encoding="UTF-8" standalone="no"?>
<svg width="176px" height="28px" viewBox="0 0 176 28" version="1.1" xmlns="http://www.w3.org/2000/svg" xmlns:xlink="http://www.w3.org/1999/xlink">
    <!-- Generator: sketchtool 41.2 (35397) - http://www.bohemiancoding.com/sketch -->
    <title>7D876586-9E38-4F87-BE31-992B3E7C2289</title>
    <desc>Created with sketchtool.</desc>
    <defs>
        <polygon id="path-1" points="0 27.9533333 175.655676 27.9533333 175.655676 0 0 0"></polygon>
    </defs>
    <g id="Page-1" stroke="none" stroke-width="1" fill="none" fill-rule="evenodd">
        <g id="Select-Cinema-Landing-Page" transform="translate(-42.000000, -27.000000)">
            <g id="SC_Logo" transform="translate(42.000000, 27.000000)">
                <path d="M1.80024424,19.5973098 C2.47244361,20.5806039 3.50815701,21.0725255 4.90738442,21.0725255 C5.44251215,21.0725255 5.94090467,20.9616235 6.40365857,20.7398196 C6.86586417,20.5174667 7.24089221,20.1710353 7.52709782,19.7005255 C7.81385171,19.2300157 7.9575028,18.6425647 7.9575028,17.9381725 C7.9575028,17.3331529 7.81001371,16.7923686 7.51613209,16.3136235 C7.22115389,15.8354275 6.82200125,15.3967608 6.31757757,14.9987216 C5.81315389,14.6012314 5.14040623,14.1493882 4.29988287,13.6442902 C3.36669907,13.0859373 2.61773956,12.5841333 2.05245607,12.1399765 C1.4866243,11.6963686 1.02222555,11.1665647 0.659259813,10.5500157 C0.296294081,9.93401569 0.114811215,9.20876078 0.114811215,8.3748 C0.114811215,7.48648627 0.315484112,6.73652549 0.716829907,6.12381961 C1.11762741,5.51166275 1.65275514,5.05487843 2.3216648,4.75236863 C2.99057445,4.44985882 3.72637508,4.29887843 4.52906667,4.29887843 C5.01046231,4.29887843 5.42496698,4.33895686 5.77312897,4.41911373 C6.12074268,4.49981961 6.40914143,4.59919216 6.63832523,4.71778039 C6.86805732,4.83691765 7.12026916,4.98789804 7.39496075,5.17127059 C7.74696075,5.39307451 8.01452461,5.50397647 8.19820062,5.50397647 C8.34349657,5.50397647 8.45370218,5.42217255 8.53046231,5.25746667 C8.60667414,5.09276078 8.66808224,4.83087843 8.71413832,4.47072157 L9.25255576,4.47072157 C9.17634393,5.38923137 9.13796386,6.98907451 9.13796386,9.26970196 L8.59899813,9.26970196 C8.53813832,8.46593725 8.36378318,7.72421176 8.07757757,7.04232941 C7.79082368,6.3615451 7.37028785,5.80813333 6.81651838,5.38319216 C6.26220062,4.9588 5.57245607,4.74632941 4.74673645,4.74632941 C4.1962567,4.74632941 3.70334704,4.86107451 3.26745919,5.09056471 C2.83211963,5.32060392 2.49218193,5.64178039 2.24709782,6.05519216 C2.00256199,6.46860392 1.88029408,6.94295686 1.88029408,7.4788 C1.88029408,8.32868235 2.13634393,9.01385882 2.6489919,9.53378039 C3.1605433,10.054251 3.75872399,10.5236627 4.44298567,10.9403686 C5.12669907,11.3576235 5.5878081,11.6392706 5.82466791,11.7842118 C6.81048723,12.4040549 7.59015078,12.9420941 8.16365857,13.3972314 C8.73716636,13.8529176 9.19553396,14.3810745 9.53930966,14.981702 C9.88363364,15.5828784 10.0552474,16.2812314 10.0552474,17.0773098 C10.0552474,18.0413882 9.83373956,18.8583294 9.39072399,19.5281333 C8.94716012,20.1979373 8.34897944,20.7013882 7.59618193,21.0379373 C6.84338442,21.3744863 6.00011963,21.5430353 5.0680324,21.5430353 C4.31852461,21.5430353 3.70334704,21.4645255 3.2219514,21.3075059 C2.74000748,21.1510353 2.28547788,20.9385647 1.85726604,20.6706431 C1.50581433,20.4488392 1.23825047,20.3373882 1.05457445,20.3373882 C0.909278505,20.3373882 0.798524611,20.4202902 0.722312773,20.5844471 C0.645552648,20.7491529 0.584692835,21.0110353 0.539185047,21.3706431 L0.000219314642,21.3706431 C0.0610791277,20.5136235 0.0917831776,18.6348784 0.0917831776,15.7338588 L0.630200623,15.7338588 C0.737664798,17.3260157 1.12749657,18.6140157 1.80024424,19.5973098 Z" id="Fill-1" fill="#FEFEFE"></path>
                <path d="M19.526076,11.347851 C19.365428,10.6978118 19.1132162,10.1811843 18.7694405,9.79796863 C18.4251165,9.41530196 18.001291,9.22424314 17.4968673,9.22424314 C17.0154717,9.22424314 16.5719078,9.37906667 16.166724,9.68926275 C15.7615402,9.9989098 15.4194093,10.4738118 15.1403315,11.1128706 C14.8612536,11.7519294 14.6836087,12.5458118 14.6073969,13.4950667 L19.721266,13.4950667 C19.7514218,12.7143608 19.686724,11.9989882 19.526076,11.347851 M21.1945121,19.9301255 C20.7926181,20.4088706 20.2925807,20.7970275 19.6922069,21.0951451 C19.0923813,21.3938118 18.4212785,21.5431451 17.679995,21.5431451 C16.5636835,21.5431451 15.5992474,21.288949 14.7850417,20.7800078 C13.9708361,20.2705176 13.3496274,19.5551451 12.9219639,18.6327922 C12.4932037,17.7104392 12.2799202,16.6486353 12.2799202,15.4468314 C12.2799202,14.0847137 12.49759,12.9021255 12.9334779,11.8990667 C13.3688174,10.8965569 13.9861882,10.1251843 14.7850417,9.58549804 C15.583347,9.04581176 16.5181757,8.77624314 17.5884312,8.77624314 C18.9947863,8.77624314 20.0782006,9.20283137 20.8386741,10.0565569 C21.5991477,10.9102824 21.9796586,12.2054196 21.9796586,13.9430667 L14.6419389,13.9430667 C14.5882069,14.3487922 14.5613408,14.849498 14.5613408,15.4468314 C14.5613408,16.4800863 14.7313097,17.3832235 15.0717956,18.1562431 C15.4117333,18.9298118 15.8569421,19.5227529 16.4074218,19.9356157 C16.9573533,20.3490275 17.5385371,20.5560078 18.1498766,20.5560078 C19.7245558,20.5560078 20.8748611,19.7714588 21.6013408,18.2023608 L22.0717707,18.3857333 C21.8880947,18.936949 21.5958579,19.4519294 21.1945121,19.9301255" id="Fill-3" fill="#FEFEFE"></path>
                <path d="M27.6724087,20.0507451 C27.7908386,20.2956078 27.9783526,20.468 28.2338542,20.5673725 C28.4904523,20.6667451 28.8402592,20.7167059 29.2832748,20.7167059 L29.2832748,21.2102745 C27.8462156,21.1493333 26.8987763,21.1185882 26.4398604,21.1185882 C25.9814928,21.1185882 25.0335053,21.1493333 23.5964461,21.2102745 L23.5964461,20.7167059 C24.0394617,20.7167059 24.3892685,20.6667451 24.6453184,20.5673725 C24.9013682,20.468 25.0888822,20.2956078 25.2073121,20.0507451 C25.3257421,19.8053333 25.384957,19.4654902 25.384957,19.0290196 L25.384957,5.59560784 C25.384957,4.8692549 25.2533682,4.3427451 24.9896424,4.01772549 C24.7259165,3.69215686 24.2615178,3.52964706 23.5964461,3.52964706 L23.5964461,3.03607843 C24.0855178,3.08164706 24.5707514,3.10470588 25.0526953,3.10470588 C26.0615427,3.10470588 26.8757483,2.99380392 27.4947639,2.772 L27.4947639,19.0290196 C27.4947639,19.4654902 27.5539788,19.8053333 27.6724087,20.0507451" id="Fill-5" fill="#FEFEFE"></path>
                <path d="M37.8942255,11.347851 C37.7335776,10.6978118 37.4813657,10.1811843 37.13759,9.79796863 C36.793266,9.41530196 36.3694405,9.22424314 35.8650168,9.22424314 C35.3836212,9.22424314 34.9400573,9.37906667 34.5348735,9.68926275 C34.1296897,9.9989098 33.7875589,10.4738118 33.508481,11.1128706 C33.2294031,11.7519294 33.0517583,12.5458118 32.9755464,13.4950667 L38.0888673,13.4950667 C38.1195713,12.7143608 38.0548735,11.9989882 37.8942255,11.347851 M39.5621134,19.9301255 C39.1607676,20.4088706 38.6601819,20.7970275 38.0603564,21.0951451 C37.4605308,21.3938118 36.789428,21.5431451 36.0481445,21.5431451 C34.931833,21.5431451 33.9673969,21.288949 33.1531913,20.7800078 C32.3389857,20.2705176 31.7177769,19.5551451 31.2901134,18.6327922 C30.8613533,17.7104392 30.6480698,16.6486353 30.6480698,15.4468314 C30.6480698,14.0847137 30.8657396,12.9021255 31.3016274,11.8990667 C31.736967,10.8965569 32.3543377,10.1251843 33.1531913,9.58549804 C33.9514966,9.04581176 34.8863252,8.77624314 35.9565807,8.77624314 C37.3623875,8.77624314 38.4463502,9.20283137 39.2068237,10.0565569 C39.9672972,10.9102824 40.3478081,12.2054196 40.3478081,13.9430667 L33.0100885,13.9430667 C32.9563564,14.3487922 32.9294903,14.849498 32.9294903,15.4468314 C32.9294903,16.4800863 33.0994592,17.3832235 33.4399452,18.1562431 C33.7798829,18.9298118 34.2250916,19.5227529 34.7755713,19.9356157 C35.3255028,20.3490275 35.9066866,20.5560078 36.5180262,20.5560078 C38.0927053,20.5560078 39.2430106,19.7714588 39.9694903,18.2023608 L40.4399202,18.3857333 C40.2562442,18.936949 39.9640075,19.4519294 39.5621134,19.9301255" id="Fill-7" fill="#FEFEFE"></path>
                <path d="M51.2283364,19.8498588 C50.8615327,20.3434275 50.3817819,20.7491529 49.7896324,21.0664863 C49.1969346,21.3843686 48.50719,21.5430353 47.7198505,21.5430353 C46.7417072,21.5430353 45.8584174,21.2904863 45.0710779,20.7853882 C44.2842866,20.2802902 43.6630779,19.5572314 43.2085483,18.6156627 C42.7534704,17.6740941 42.5259315,16.5722118 42.5259315,15.3089176 C42.5259315,14.0384863 42.7573084,12.9075059 43.2200623,11.9159765 C43.6817196,10.9249961 44.3297944,10.1541725 45.16319,9.60295686 C45.9965857,9.05174118 46.9401869,8.77613333 47.9950903,8.77613333 C49.0499938,8.77613333 49.9596012,9.02538824 50.7239128,9.52225098 C51.4580685,10.0202118 51.824324,10.6246824 51.824324,11.3367608 C51.824324,11.7501725 51.7080872,12.0729961 51.4750654,12.3068784 C51.2414953,12.5402118 50.9454206,12.6566039 50.5862928,12.6566039 C50.2194891,12.6566039 49.9119003,12.5517412 49.6635265,12.3409176 C49.4151526,12.1306431 49.2906916,11.8418588 49.2906916,11.4745647 C49.2906916,11.1374667 49.3844486,10.8563686 49.5719626,10.6301725 C49.7589283,10.4050745 49.9941433,10.2535451 50.2770592,10.1766824 C50.1240872,9.89393725 49.8450093,9.65840784 49.4398255,9.47064314 C49.0346417,9.28342745 48.6102679,9.1895451 48.1672523,9.1895451 C47.5937445,9.1895451 47.0553271,9.37346667 46.5503551,9.74021176 C46.0459315,10.1080549 45.6292336,10.7207608 45.30081,11.5777804 C44.9723863,12.4348 44.807352,13.5597412 44.807352,14.9531529 C44.807352,16.9049176 45.120972,18.3230353 45.7476636,19.2069569 C46.3743551,20.0908784 47.1885607,20.5328392 48.1897321,20.5328392 C48.855352,20.5328392 49.4913645,20.3373882 50.098866,19.9475843 C50.7069159,19.5572314 51.2058567,18.9450745 51.5951402,18.1105647 L52.0425421,18.2714275 C51.8665421,18.8297804 51.5951402,19.3557412 51.2283364,19.8498588" id="Fill-9" fill="#FEFEFE"></path>
                <path d="M60.8022978,9.12075294 L60.8022978,9.59126275 L57.3283539,9.59126275 L57.3283539,18.6962039 C57.3283539,19.4077333 57.4544598,19.9188706 57.7066717,20.2285176 C57.9588835,20.5381647 58.3333632,20.6935373 58.8301109,20.6935373 C59.3191826,20.6935373 59.7358804,20.4980863 60.0802044,20.1082824 C60.4239801,19.7179294 60.7140237,19.0744784 60.9514318,18.1790275 L61.4097994,18.2937725 C61.0276436,20.4602039 60.0116685,21.5428706 58.3602293,21.5428706 C57.8327776,21.5428706 57.3968897,21.4797333 57.053114,21.3540078 C56.7093383,21.2271843 56.4033944,21.0306353 56.1358305,20.7621647 C55.7997308,20.4179294 55.5623227,19.9951843 55.4252511,19.4939294 C55.2870829,18.9926745 55.218547,18.3168314 55.218547,17.467498 L55.218547,9.59126275 L52.9596062,9.59126275 L52.9596062,9.12075294 L55.218547,9.12075294 L55.218547,5.52687059 C56.0974505,5.50381176 56.8009022,5.3929098 57.3283539,5.19416471 L57.3283539,9.12075294 L60.8022978,9.12075294 Z" id="Fill-11" fill="#FEFEFE"></path>
                <path d="M113.007462,5.50622745 C114.792135,5.50622745 116.15353,6.39948235 116.951836,7.33995294 L116.482502,7.85712941 C115.637044,6.86944314 114.463163,6.21171765 113.007462,6.21171765 C109.438664,6.21171765 107.278963,9.03258039 107.278963,13.4999529 C107.278963,17.9667765 109.438664,20.8815216 112.913705,20.8815216 C114.557468,20.8815216 115.777954,20.2237961 116.951836,18.906698 L117.421717,19.3772078 C116.247836,20.7409725 114.885892,21.5870118 112.866552,21.5870118 C109.063088,21.5870118 106.480658,18.3900706 106.480658,13.4999529 C106.480658,8.60928627 109.063088,5.50622745 113.007462,5.50622745" id="Fill-13" fill="#FEFEFE"></path>
                <mask id="mask-2" fill="white">
                    <use xlink:href="#path-1"></use>
                </mask>
                <g id="Clip-16"></g>
                <path d="M120.522168,21.3047059 L121.226717,21.3047059 L121.226717,10.0668235 L120.522168,10.0668235 L120.522168,21.3047059 Z M120.099439,6.39937255 C120.099439,5.88219608 120.475016,5.6 120.897745,5.6 C121.320474,5.6 121.69605,5.88219608 121.69605,6.39937255 C121.69605,6.86933333 121.320474,7.1987451 120.897745,7.1987451 C120.475016,7.1987451 120.099439,6.86933333 120.099439,6.39937255 L120.099439,6.39937255 Z" id="Fill-15" fill="#FEFEFE" mask="url(#mask-2)"></path>
                <path d="M125.734619,10.067098 L126.345411,10.067098 L126.439168,11.8536078 L126.48632,11.8536078 C127.660202,10.6781569 128.834083,9.78490196 130.383541,9.78490196 C132.684152,9.78490196 133.764825,11.1486667 133.764825,14.0634118 L133.764825,21.3049804 L133.060277,21.3049804 L133.060277,14.1578431 C133.060277,11.6658431 132.261971,10.4431765 130.336389,10.4431765 C128.92784,10.4431765 127.894869,11.1958824 126.439168,12.7001961 L126.439168,21.3049804 L125.734619,21.3049804 L125.734619,10.067098 Z" id="Fill-17" fill="#FEFEFE" mask="url(#mask-2)"></path>
                <path d="M145.457914,15.098149 C145.457914,11.9950902 144.049366,10.4430118 141.936269,10.4430118 C139.91693,10.4430118 138.085652,12.2300706 137.850986,15.098149 L145.457914,15.098149 Z M141.936269,9.78473725 C144.518699,9.78473725 146.162462,11.6184627 146.162462,14.957051 C146.162462,15.1920314 146.162462,15.4275608 146.11531,15.7097569 L137.850986,15.7097569 C137.850986,18.7189333 139.588506,20.9287373 142.265241,20.9287373 C143.53288,20.9287373 144.518699,20.5054431 145.364157,19.8943843 L145.692581,20.5054431 C144.847671,21.0231686 143.908456,21.5870118 142.21754,21.5870118 C139.400444,21.5870118 137.099285,19.3772078 137.099285,15.7097569 C137.099285,12.0417569 139.447596,9.78473725 141.936269,9.78473725 L141.936269,9.78473725 Z" id="Fill-18" fill="#FEFEFE" mask="url(#mask-2)"></path>
                <path d="M149.309518,10.067098 L149.920309,10.067098 L150.014066,11.8536078 L150.061219,11.8536078 C151.094191,10.6781569 152.408982,9.78490196 153.630016,9.78490196 C155.461293,9.78490196 156.353356,10.7253725 156.72948,12.1358039 C158.043723,10.6781569 159.31191,9.78490196 160.579549,9.78490196 C162.786402,9.78490196 163.91368,11.1486667 163.91368,14.0634118 L163.91368,21.3049804 L163.20968,21.3049804 L163.20968,14.1578431 C163.20968,11.6658431 162.363674,10.4431765 160.532945,10.4431765 C159.405667,10.4431765 158.278938,11.1958824 156.964147,12.7001961 L156.964147,21.3049804 L156.259599,21.3049804 L156.259599,14.1578431 C156.259599,11.6658431 155.414141,10.4431765 153.582864,10.4431765 C152.502739,10.4431765 151.328857,11.1958824 150.014066,12.7001961 L150.014066,21.3049804 L149.309518,21.3049804 L149.309518,10.067098 Z" id="Fill-19" fill="#FEFEFE" mask="url(#mask-2)"></path>
                <path d="M170.865735,20.9290118 C172.227679,20.9290118 173.448713,20.2707373 174.951566,19.0008549 L174.951566,14.9101098 C170.020825,15.474502 168.329909,16.6027373 168.329909,18.5308941 C168.329909,20.2707373 169.503791,20.9290118 170.865735,20.9290118 M174.951566,14.299051 C174.998171,12.4653255 174.528837,10.4432863 172.180526,10.4432863 C170.583915,10.4432863 169.22252,11.2426588 168.517971,11.807051 L168.142395,11.2426588 C168.846943,10.7254824 170.396401,9.78501176 172.227679,9.78501176 C174.857261,9.78501176 175.655566,11.7598353 175.655566,14.0168549 L175.655566,21.3050902 L175.044775,21.3050902 L174.951566,19.8002275 L174.904414,19.8002275 C173.730532,20.740698 172.321436,21.5872863 170.81913,21.5872863 C169.08161,21.5872863 167.578756,20.6940314 167.578756,18.554502 C167.578756,16.0383451 169.879915,14.8628941 174.951566,14.299051" id="Fill-20" fill="#FEFEFE" mask="url(#mask-2)"></path>
                <polygon id="Fill-21" fill="#C4A058" mask="url(#mask-2)" points="88.838385 27.4838118 75.349438 13.9768314 88.838385 0.469301961 102.327332 13.9768314"></polygon>
                <polygon id="Fill-22" fill="#1E1E1E" mask="url(#mask-2)" points="91.5159975 13.9766118 87.3906891 17.1362196 87.3906891 10.8170039"></polygon>
                <polygon id="Fill-23" fill="#C4A058" mask="url(#mask-2)" points="82.2642642 23.3490353 78.4098093 27.2086431 65.1955539 13.9761725 78.4098093 0.7448 82.2264324 4.56652549 82.5016723 4.29146667 78.4098093 0.194133333 64.6456224 13.9761725 78.4098093 27.7593098 82.5389558 23.6240941"></polygon>
                <path d="M64.8395514,13.9763922 L78.4096449,27.5651765 L82.3452461,23.6243137 L82.2640997,23.5430588 L78.4096449,27.4026667 L65.0018442,13.9763922 L78.4096449,0.550666667 L82.2268162,4.37239216 L82.3079626,4.29113725 L78.4096449,0.388156863 L64.8395514,13.9763922 Z M78.4096449,27.9533333 L64.4519128,13.9763922 L78.4096449,0 L82.6956012,4.29113725 L82.2268162,4.76054902 L78.4096449,0.938823529 L65.3894829,13.9763922 L78.4096449,27.0145098 L82.2640997,23.154902 L82.7328847,23.6243137 L78.4096449,27.9533333 Z" id="Fill-24" fill="#C4A058" mask="url(#mask-2)"></path>
            </g>
        </g>
    </g>
</svg>